<mxfile host="app.diagrams.net" modified="2024-06-12T20:54:29.688Z" agent="Mozilla/5.0 (Windows NT 10.0; Win64; x64) AppleWebKit/537.36 (KHTML, like Gecko) Chrome/124.0.0.0 Safari/537.36" etag="ahzv6q8ZEsvUALk14VA5" version="24.5.2" type="device">
  <diagram name="PÃ¡gina-1" id="wUoxnswPdTf4mjLQdT_u">
    <mxGraphModel dx="2261" dy="3084" grid="1" gridSize="10" guides="1" tooltips="1" connect="1" arrows="1" fold="1" page="1" pageScale="1" pageWidth="827" pageHeight="1169" math="0" shadow="0">
      <root>
        <mxCell id="0" />
        <mxCell id="1" parent="0" />
        <mxCell id="ajWUh77K1EoTgcpIGwOs-1" value="" style="fontStyle=1;align=center;verticalAlign=top;childLayout=stackLayout;horizontal=1;horizontalStack=0;resizeParent=1;resizeParentMax=0;resizeLast=0;marginBottom=0;fontColor=none;noLabel=1;fillColor=#57BCFF;" parent="1" vertex="1">
          <mxGeometry x="190" y="110" width="768.21" height="650" as="geometry" />
        </mxCell>
        <mxCell id="ajWUh77K1EoTgcpIGwOs-2" value="&amp;lt;&amp;lt;component&amp;gt;&amp;gt;&lt;br&gt;&lt;b&gt;Server&lt;/b&gt;" style="html=1;align=center;spacingLeft=4;verticalAlign=top;strokeColor=none;fillColor=none;whiteSpace=wrap;" parent="ajWUh77K1EoTgcpIGwOs-1" vertex="1">
          <mxGeometry width="768.21" height="650" as="geometry" />
        </mxCell>
        <mxCell id="ajWUh77K1EoTgcpIGwOs-3" value="Application Business&amp;nbsp;" style="shape=folder;fontStyle=1;tabWidth=120;tabHeight=20;tabPosition=left;html=1;boundedLbl=1;whiteSpace=wrap;fillColor=#FF8000;verticalAlign=top;strokeColor=#000000;" parent="ajWUh77K1EoTgcpIGwOs-2" vertex="1">
          <mxGeometry y="533" width="768.21" height="100" as="geometry" />
        </mxCell>
        <mxCell id="ajWUh77K1EoTgcpIGwOs-4" value="Application Business" style="shape=folder;fontStyle=1;tabWidth=120;tabHeight=20;tabPosition=left;html=1;boundedLbl=1;whiteSpace=wrap;fillColor=#ec8997;verticalAlign=top;strokeColor=#000000;" parent="ajWUh77K1EoTgcpIGwOs-2" vertex="1">
          <mxGeometry y="395.75" width="768.21" height="100" as="geometry" />
        </mxCell>
        <mxCell id="ajWUh77K1EoTgcpIGwOs-5" value="Interface Adapters&lt;span style=&quot;white-space: pre;&quot;&gt;&#x9;&lt;/span&gt; Layer" style="shape=folder;fontStyle=1;tabWidth=120;tabHeight=20;tabPosition=left;html=1;boundedLbl=1;whiteSpace=wrap;fillColor=#6AB86B;verticalAlign=top;" parent="ajWUh77K1EoTgcpIGwOs-2" vertex="1">
          <mxGeometry y="202.75" width="760" height="100" as="geometry" />
        </mxCell>
        <mxCell id="ajWUh77K1EoTgcpIGwOs-6" value="Frameworks and Drivers Layer" style="shape=folder;fontStyle=1;tabWidth=120;tabHeight=20;tabPosition=left;html=1;boundedLbl=1;whiteSpace=wrap;fillColor=#7a64e6;verticalAlign=top;" parent="ajWUh77K1EoTgcpIGwOs-2" vertex="1">
          <mxGeometry y="40" width="760" height="100" as="geometry" />
        </mxCell>
        <mxCell id="ajWUh77K1EoTgcpIGwOs-7" value="" style="shape=module;jettyWidth=10;jettyHeight=4;fillColor=#57BCFF;" parent="ajWUh77K1EoTgcpIGwOs-2" vertex="1">
          <mxGeometry x="1" width="16" height="20" relative="1" as="geometry">
            <mxPoint x="-25" y="9" as="offset" />
          </mxGeometry>
        </mxCell>
        <mxCell id="ajWUh77K1EoTgcpIGwOs-8" value="" style="fontStyle=1;align=center;verticalAlign=top;childLayout=stackLayout;horizontal=1;horizontalStack=0;resizeParent=1;resizeParentMax=0;resizeLast=0;marginBottom=0;fontColor=none;noLabel=1;fillColor=#57BCFF;" parent="ajWUh77K1EoTgcpIGwOs-2" vertex="1">
          <mxGeometry x="24.47" y="80" width="155.53" height="50" as="geometry" />
        </mxCell>
        <mxCell id="ajWUh77K1EoTgcpIGwOs-9" style="edgeStyle=orthogonalEdgeStyle;rounded=0;orthogonalLoop=1;jettySize=auto;html=1;exitX=0.5;exitY=0;exitDx=0;exitDy=0;entryX=0.5;entryY=1;entryDx=0;entryDy=0;endArrow=none;endFill=0;" parent="ajWUh77K1EoTgcpIGwOs-2" source="ajWUh77K1EoTgcpIGwOs-11" target="ajWUh77K1EoTgcpIGwOs-13" edge="1">
          <mxGeometry relative="1" as="geometry" />
        </mxCell>
        <mxCell id="ajWUh77K1EoTgcpIGwOs-10" style="edgeStyle=orthogonalEdgeStyle;rounded=0;orthogonalLoop=1;jettySize=auto;html=1;exitX=0.5;exitY=1;exitDx=0;exitDy=0;entryX=0.5;entryY=0;entryDx=0;entryDy=0;endArrow=halfCircle;endFill=0;" parent="ajWUh77K1EoTgcpIGwOs-2" source="ajWUh77K1EoTgcpIGwOs-11" target="ajWUh77K1EoTgcpIGwOs-20" edge="1">
          <mxGeometry relative="1" as="geometry" />
        </mxCell>
        <mxCell id="ajWUh77K1EoTgcpIGwOs-11" value="&amp;lt;&amp;lt;component&amp;gt;&amp;gt;&lt;br style=&quot;border-color: var(--border-color);&quot;&gt;&lt;div style=&quot;border-color: var(--border-color); text-align: center;&quot;&gt;&lt;b style=&quot;border-color: var(--border-color); background-color: initial;&quot;&gt;Routing&lt;/b&gt;&lt;/div&gt;" style="html=1;align=left;spacingLeft=4;verticalAlign=top;strokeColor=none;fillColor=none;whiteSpace=wrap;" parent="ajWUh77K1EoTgcpIGwOs-2" vertex="1">
          <mxGeometry x="24.47" y="80" width="155.53" height="50" as="geometry" />
        </mxCell>
        <mxCell id="ajWUh77K1EoTgcpIGwOs-12" value="" style="shape=module;jettyWidth=10;jettyHeight=4;fillColor=#57BCFF;" parent="ajWUh77K1EoTgcpIGwOs-11" vertex="1">
          <mxGeometry x="1" width="16" height="20" relative="1" as="geometry">
            <mxPoint x="-25" y="9" as="offset" />
          </mxGeometry>
        </mxCell>
        <mxCell id="ajWUh77K1EoTgcpIGwOs-13" value="" style="whiteSpace=wrap;html=1;aspect=fixed;fillColor=#57BCFF;" parent="ajWUh77K1EoTgcpIGwOs-2" vertex="1">
          <mxGeometry x="92.23063829787235" y="-9.997741935483871" width="20" height="20" as="geometry" />
        </mxCell>
        <mxCell id="ajWUh77K1EoTgcpIGwOs-14" value="" style="fontStyle=1;align=center;verticalAlign=top;childLayout=stackLayout;horizontal=1;horizontalStack=0;resizeParent=1;resizeParentMax=0;resizeLast=0;marginBottom=0;fontColor=none;noLabel=1;fillColor=#57BCFF;" parent="ajWUh77K1EoTgcpIGwOs-2" vertex="1">
          <mxGeometry x="24.47" y="232.5" width="155.53" height="48.5" as="geometry" />
        </mxCell>
        <mxCell id="ajWUh77K1EoTgcpIGwOs-15" style="edgeStyle=orthogonalEdgeStyle;rounded=0;orthogonalLoop=1;jettySize=auto;html=1;exitX=0.25;exitY=1;exitDx=0;exitDy=0;entryX=0.5;entryY=0;entryDx=0;entryDy=0;endArrow=halfCircle;endFill=0;" parent="ajWUh77K1EoTgcpIGwOs-2" target="ajWUh77K1EoTgcpIGwOs-28" edge="1">
          <mxGeometry relative="1" as="geometry">
            <mxPoint x="63.352499999999964" y="282" as="sourcePoint" />
          </mxGeometry>
        </mxCell>
        <mxCell id="ajWUh77K1EoTgcpIGwOs-16" style="edgeStyle=orthogonalEdgeStyle;rounded=0;orthogonalLoop=1;jettySize=auto;html=1;exitX=0.75;exitY=1;exitDx=0;exitDy=0;entryX=0.5;entryY=0;entryDx=0;entryDy=0;endArrow=halfCircle;endFill=0;" parent="ajWUh77K1EoTgcpIGwOs-2" target="ajWUh77K1EoTgcpIGwOs-29" edge="1">
          <mxGeometry relative="1" as="geometry">
            <mxPoint x="141.11750000000006" y="282" as="sourcePoint" />
          </mxGeometry>
        </mxCell>
        <mxCell id="ajWUh77K1EoTgcpIGwOs-17" style="edgeStyle=orthogonalEdgeStyle;rounded=0;orthogonalLoop=1;jettySize=auto;html=1;exitX=0.5;exitY=0;exitDx=0;exitDy=0;entryX=0.5;entryY=1;entryDx=0;entryDy=0;endArrow=none;endFill=0;" parent="ajWUh77K1EoTgcpIGwOs-2" source="ajWUh77K1EoTgcpIGwOs-18" target="ajWUh77K1EoTgcpIGwOs-20" edge="1">
          <mxGeometry relative="1" as="geometry" />
        </mxCell>
        <mxCell id="ajWUh77K1EoTgcpIGwOs-18" value="&amp;lt;&amp;lt;component&amp;gt;&amp;gt;&lt;br style=&quot;border-color: var(--border-color);&quot;&gt;&lt;div style=&quot;border-color: var(--border-color); text-align: center;&quot;&gt;&lt;b style=&quot;border-color: var(--border-color); background-color: initial;&quot;&gt;Controller&lt;/b&gt;&lt;/div&gt;" style="html=1;align=left;spacingLeft=4;verticalAlign=top;strokeColor=none;fillColor=none;whiteSpace=wrap;" parent="ajWUh77K1EoTgcpIGwOs-2" vertex="1">
          <mxGeometry x="24.47" y="232.5" width="155.53" height="48.5" as="geometry" />
        </mxCell>
        <mxCell id="ajWUh77K1EoTgcpIGwOs-19" value="" style="shape=module;jettyWidth=10;jettyHeight=4;fillColor=#57BCFF;" parent="ajWUh77K1EoTgcpIGwOs-18" vertex="1">
          <mxGeometry x="1" width="19" height="20" relative="1" as="geometry">
            <mxPoint x="-25" y="10" as="offset" />
          </mxGeometry>
        </mxCell>
        <mxCell id="ajWUh77K1EoTgcpIGwOs-20" value="" style="ellipse;whiteSpace=wrap;html=1;aspect=fixed;fillColor=#57BCFF;perimeterSpacing=0;" parent="ajWUh77K1EoTgcpIGwOs-2" vertex="1">
          <mxGeometry x="95.73787234042554" y="170.00304347826088" width="13" height="13" as="geometry" />
        </mxCell>
        <mxCell id="ajWUh77K1EoTgcpIGwOs-21" value="" style="fontStyle=1;align=center;verticalAlign=top;childLayout=stackLayout;horizontal=1;horizontalStack=0;resizeParent=1;resizeParentMax=0;resizeLast=0;marginBottom=0;fontColor=none;noLabel=1;fillColor=#57BCFF;" parent="ajWUh77K1EoTgcpIGwOs-2" vertex="1">
          <mxGeometry x="24.470000000000027" y="427" width="155.53" height="48.5" as="geometry" />
        </mxCell>
        <mxCell id="ajWUh77K1EoTgcpIGwOs-22" style="edgeStyle=orthogonalEdgeStyle;rounded=0;orthogonalLoop=1;jettySize=auto;html=1;exitX=1;exitY=1;exitDx=0;exitDy=0;entryX=0;entryY=0.5;entryDx=0;entryDy=0;endArrow=halfCircle;endFill=0;" parent="ajWUh77K1EoTgcpIGwOs-2" source="ajWUh77K1EoTgcpIGwOs-26" target="ajWUh77K1EoTgcpIGwOs-34" edge="1">
          <mxGeometry relative="1" as="geometry" />
        </mxCell>
        <mxCell id="ajWUh77K1EoTgcpIGwOs-23" style="edgeStyle=orthogonalEdgeStyle;rounded=0;orthogonalLoop=1;jettySize=auto;html=1;exitX=1;exitY=0.25;exitDx=0;exitDy=0;entryX=0.5;entryY=1;entryDx=0;entryDy=0;endArrow=halfCircle;endFill=0;" parent="ajWUh77K1EoTgcpIGwOs-2" source="ajWUh77K1EoTgcpIGwOs-26" target="ajWUh77K1EoTgcpIGwOs-47" edge="1">
          <mxGeometry relative="1" as="geometry" />
        </mxCell>
        <mxCell id="ajWUh77K1EoTgcpIGwOs-24" style="edgeStyle=orthogonalEdgeStyle;rounded=0;orthogonalLoop=1;jettySize=auto;html=1;exitX=0.75;exitY=0;exitDx=0;exitDy=0;entryX=0.5;entryY=1;entryDx=0;entryDy=0;endArrow=halfCircle;endFill=0;" parent="ajWUh77K1EoTgcpIGwOs-2" source="ajWUh77K1EoTgcpIGwOs-26" target="ajWUh77K1EoTgcpIGwOs-29" edge="1">
          <mxGeometry relative="1" as="geometry" />
        </mxCell>
        <mxCell id="ajWUh77K1EoTgcpIGwOs-25" style="edgeStyle=orthogonalEdgeStyle;rounded=0;orthogonalLoop=1;jettySize=auto;html=1;exitX=0.25;exitY=0;exitDx=0;exitDy=0;entryX=0.5;entryY=1;entryDx=0;entryDy=0;endArrow=none;endFill=0;" parent="ajWUh77K1EoTgcpIGwOs-2" source="ajWUh77K1EoTgcpIGwOs-26" target="ajWUh77K1EoTgcpIGwOs-28" edge="1">
          <mxGeometry relative="1" as="geometry" />
        </mxCell>
        <mxCell id="ajWUh77K1EoTgcpIGwOs-26" value="&amp;lt;&amp;lt;component&amp;gt;&amp;gt;&lt;br style=&quot;border-color: var(--border-color);&quot;&gt;&lt;div style=&quot;border-color: var(--border-color); text-align: center;&quot;&gt;&lt;b style=&quot;border-color: var(--border-color); background-color: initial;&quot;&gt;Application Service&lt;/b&gt;&lt;/div&gt;" style="html=1;align=left;spacingLeft=4;verticalAlign=top;strokeColor=none;fillColor=none;whiteSpace=wrap;" parent="ajWUh77K1EoTgcpIGwOs-2" vertex="1">
          <mxGeometry x="24.470000000000027" y="427" width="155.53" height="48.5" as="geometry" />
        </mxCell>
        <mxCell id="ajWUh77K1EoTgcpIGwOs-27" value="" style="shape=module;jettyWidth=10;jettyHeight=4;fillColor=#57BCFF;" parent="ajWUh77K1EoTgcpIGwOs-26" vertex="1">
          <mxGeometry x="1" width="19" height="20" relative="1" as="geometry">
            <mxPoint x="-25" y="9" as="offset" />
          </mxGeometry>
        </mxCell>
        <mxCell id="ajWUh77K1EoTgcpIGwOs-28" value="" style="ellipse;whiteSpace=wrap;html=1;aspect=fixed;fillColor=#57BCFF;perimeterSpacing=0;" parent="ajWUh77K1EoTgcpIGwOs-2" vertex="1">
          <mxGeometry x="56.997872340425545" y="347.0030434782609" width="13" height="13" as="geometry" />
        </mxCell>
        <mxCell id="ajWUh77K1EoTgcpIGwOs-29" value="" style="ellipse;whiteSpace=wrap;html=1;aspect=fixed;fillColor=#57BCFF;perimeterSpacing=0;" parent="ajWUh77K1EoTgcpIGwOs-2" vertex="1">
          <mxGeometry x="134.99787234042554" y="347.0030434782609" width="13" height="13" as="geometry" />
        </mxCell>
        <mxCell id="ajWUh77K1EoTgcpIGwOs-30" value="" style="fontStyle=1;align=center;verticalAlign=top;childLayout=stackLayout;horizontal=1;horizontalStack=0;resizeParent=1;resizeParentMax=0;resizeLast=0;marginBottom=0;fontColor=none;noLabel=1;fillColor=#57BCFF;" parent="ajWUh77K1EoTgcpIGwOs-2" vertex="1">
          <mxGeometry x="302.23" y="580" width="155.53" height="48.5" as="geometry" />
        </mxCell>
        <mxCell id="ajWUh77K1EoTgcpIGwOs-31" style="edgeStyle=orthogonalEdgeStyle;rounded=0;orthogonalLoop=1;jettySize=auto;html=1;exitX=0.5;exitY=0;exitDx=0;exitDy=0;entryX=0.5;entryY=1;entryDx=0;entryDy=0;endArrow=none;endFill=0;" parent="ajWUh77K1EoTgcpIGwOs-2" source="ajWUh77K1EoTgcpIGwOs-32" target="ajWUh77K1EoTgcpIGwOs-35" edge="1">
          <mxGeometry relative="1" as="geometry" />
        </mxCell>
        <mxCell id="ajWUh77K1EoTgcpIGwOs-32" value="&amp;lt;&amp;lt;component&amp;gt;&amp;gt;&lt;br style=&quot;border-color: var(--border-color);&quot;&gt;&lt;div style=&quot;border-color: var(--border-color); text-align: center;&quot;&gt;&lt;b&gt;Domain Model&lt;/b&gt;&lt;/div&gt;" style="html=1;align=left;spacingLeft=4;verticalAlign=top;strokeColor=none;fillColor=none;whiteSpace=wrap;" parent="ajWUh77K1EoTgcpIGwOs-2" vertex="1">
          <mxGeometry x="302.23" y="580" width="155.53" height="48.5" as="geometry" />
        </mxCell>
        <mxCell id="ajWUh77K1EoTgcpIGwOs-33" value="" style="shape=module;jettyWidth=10;jettyHeight=4;fillColor=#57BCFF;" parent="ajWUh77K1EoTgcpIGwOs-32" vertex="1">
          <mxGeometry x="1" width="19" height="20" relative="1" as="geometry">
            <mxPoint x="-25" y="9" as="offset" />
          </mxGeometry>
        </mxCell>
        <mxCell id="ajWUh77K1EoTgcpIGwOs-34" value="" style="ellipse;whiteSpace=wrap;html=1;aspect=fixed;fillColor=#57BCFF;perimeterSpacing=0;" parent="ajWUh77K1EoTgcpIGwOs-2" vertex="1">
          <mxGeometry x="373.4978723404256" y="520.0030434782609" width="13" height="13" as="geometry" />
        </mxCell>
        <mxCell id="ajWUh77K1EoTgcpIGwOs-35" value="&lt;b&gt;Model API&lt;/b&gt;" style="text;html=1;strokeColor=none;fillColor=none;align=center;verticalAlign=middle;whiteSpace=wrap;rounded=0;" parent="ajWUh77K1EoTgcpIGwOs-2" vertex="1">
          <mxGeometry x="350" y="528" width="60" height="30" as="geometry" />
        </mxCell>
        <mxCell id="ajWUh77K1EoTgcpIGwOs-36" value="" style="fontStyle=1;align=center;verticalAlign=top;childLayout=stackLayout;horizontal=1;horizontalStack=0;resizeParent=1;resizeParentMax=0;resizeLast=0;marginBottom=0;fontColor=none;noLabel=1;fillColor=#57BCFF;" parent="ajWUh77K1EoTgcpIGwOs-2" vertex="1">
          <mxGeometry x="267.97" y="330.25" width="155.53" height="48.5" as="geometry" />
        </mxCell>
        <mxCell id="ajWUh77K1EoTgcpIGwOs-37" style="edgeStyle=orthogonalEdgeStyle;rounded=0;orthogonalLoop=1;jettySize=auto;html=1;exitX=0;exitY=0.5;exitDx=0;exitDy=0;entryX=1;entryY=0.5;entryDx=0;entryDy=0;endArrow=none;endFill=0;" parent="ajWUh77K1EoTgcpIGwOs-2" source="ajWUh77K1EoTgcpIGwOs-38" target="ajWUh77K1EoTgcpIGwOs-29" edge="1">
          <mxGeometry relative="1" as="geometry" />
        </mxCell>
        <mxCell id="ajWUh77K1EoTgcpIGwOs-38" value="&amp;lt;&amp;lt;component&amp;gt;&amp;gt;&lt;br style=&quot;border-color: var(--border-color);&quot;&gt;&lt;div style=&quot;border-color: var(--border-color); text-align: center;&quot;&gt;&lt;b&gt;DTO&lt;/b&gt;&lt;/div&gt;" style="html=1;align=left;spacingLeft=4;verticalAlign=top;strokeColor=none;fillColor=none;whiteSpace=wrap;" parent="ajWUh77K1EoTgcpIGwOs-2" vertex="1">
          <mxGeometry x="267.97" y="329.25" width="155.53" height="48.5" as="geometry" />
        </mxCell>
        <mxCell id="ajWUh77K1EoTgcpIGwOs-39" value="" style="shape=module;jettyWidth=10;jettyHeight=4;fillColor=#57BCFF;" parent="ajWUh77K1EoTgcpIGwOs-38" vertex="1">
          <mxGeometry x="1" width="19" height="20" relative="1" as="geometry">
            <mxPoint x="-25" y="9" as="offset" />
          </mxGeometry>
        </mxCell>
        <mxCell id="ajWUh77K1EoTgcpIGwOs-40" value="" style="fontStyle=1;align=center;verticalAlign=top;childLayout=stackLayout;horizontal=1;horizontalStack=0;resizeParent=1;resizeParentMax=0;resizeLast=0;marginBottom=0;fontColor=none;noLabel=1;fillColor=#57BCFF;" parent="ajWUh77K1EoTgcpIGwOs-2" vertex="1">
          <mxGeometry x="560" y="232.5" width="155.53" height="48.5" as="geometry" />
        </mxCell>
        <mxCell id="ajWUh77K1EoTgcpIGwOs-41" style="edgeStyle=orthogonalEdgeStyle;rounded=0;orthogonalLoop=1;jettySize=auto;html=1;exitX=0.75;exitY=1;exitDx=0;exitDy=0;entryX=1;entryY=0.5;entryDx=0;entryDy=0;endArrow=halfCircle;endFill=0;" parent="ajWUh77K1EoTgcpIGwOs-2" source="ajWUh77K1EoTgcpIGwOs-45" target="ajWUh77K1EoTgcpIGwOs-34" edge="1">
          <mxGeometry relative="1" as="geometry" />
        </mxCell>
        <mxCell id="ajWUh77K1EoTgcpIGwOs-42" style="edgeStyle=orthogonalEdgeStyle;rounded=0;orthogonalLoop=1;jettySize=auto;html=1;exitX=0.25;exitY=0;exitDx=0;exitDy=0;entryX=0.5;entryY=1;entryDx=0;entryDy=0;endArrow=halfCircle;endFill=0;" parent="ajWUh77K1EoTgcpIGwOs-2" source="ajWUh77K1EoTgcpIGwOs-45" target="ajWUh77K1EoTgcpIGwOs-54" edge="1">
          <mxGeometry relative="1" as="geometry">
            <Array as="points">
              <mxPoint x="577" y="233" />
            </Array>
          </mxGeometry>
        </mxCell>
        <mxCell id="ajWUh77K1EoTgcpIGwOs-43" style="edgeStyle=orthogonalEdgeStyle;rounded=0;orthogonalLoop=1;jettySize=auto;html=1;exitX=0.802;exitY=0.019;exitDx=0;exitDy=0;entryX=0.5;entryY=1;entryDx=0;entryDy=0;endArrow=halfCircle;endFill=0;exitPerimeter=0;" parent="ajWUh77K1EoTgcpIGwOs-2" source="ajWUh77K1EoTgcpIGwOs-45" target="ajWUh77K1EoTgcpIGwOs-53" edge="1">
          <mxGeometry relative="1" as="geometry" />
        </mxCell>
        <mxCell id="ajWUh77K1EoTgcpIGwOs-44" style="edgeStyle=orthogonalEdgeStyle;rounded=0;orthogonalLoop=1;jettySize=auto;html=1;exitX=0.25;exitY=1;exitDx=0;exitDy=0;entryX=0.5;entryY=0;entryDx=0;entryDy=0;endArrow=none;endFill=0;" parent="ajWUh77K1EoTgcpIGwOs-2" source="ajWUh77K1EoTgcpIGwOs-45" target="ajWUh77K1EoTgcpIGwOs-47" edge="1">
          <mxGeometry relative="1" as="geometry" />
        </mxCell>
        <mxCell id="ajWUh77K1EoTgcpIGwOs-45" value="&amp;lt;&amp;lt;component&amp;gt;&amp;gt;&lt;br style=&quot;border-color: var(--border-color);&quot;&gt;&lt;div style=&quot;border-color: var(--border-color); text-align: center;&quot;&gt;&lt;b style=&quot;border-color: var(--border-color); background-color: initial;&quot;&gt;Repository&lt;/b&gt;&lt;/div&gt;" style="html=1;align=left;spacingLeft=4;verticalAlign=top;strokeColor=none;fillColor=none;whiteSpace=wrap;" parent="ajWUh77K1EoTgcpIGwOs-2" vertex="1">
          <mxGeometry x="560" y="232.5" width="155.53" height="48.5" as="geometry" />
        </mxCell>
        <mxCell id="ajWUh77K1EoTgcpIGwOs-46" value="" style="shape=module;jettyWidth=10;jettyHeight=4;fillColor=#57BCFF;" parent="ajWUh77K1EoTgcpIGwOs-45" vertex="1">
          <mxGeometry x="1" width="19" height="20" relative="1" as="geometry">
            <mxPoint x="-25" y="10" as="offset" />
          </mxGeometry>
        </mxCell>
        <mxCell id="ajWUh77K1EoTgcpIGwOs-47" value="" style="ellipse;whiteSpace=wrap;html=1;aspect=fixed;fillColor=#57BCFF;perimeterSpacing=0;" parent="ajWUh77K1EoTgcpIGwOs-2" vertex="1">
          <mxGeometry x="591.9978723404256" y="342.0030434782609" width="13" height="13" as="geometry" />
        </mxCell>
        <mxCell id="ajWUh77K1EoTgcpIGwOs-48" value="" style="fontStyle=1;align=center;verticalAlign=top;childLayout=stackLayout;horizontal=1;horizontalStack=0;resizeParent=1;resizeParentMax=0;resizeLast=0;marginBottom=0;fontColor=none;noLabel=1;fillColor=#57BCFF;" parent="ajWUh77K1EoTgcpIGwOs-2" vertex="1">
          <mxGeometry x="560" y="80" width="155.53" height="50" as="geometry" />
        </mxCell>
        <mxCell id="ajWUh77K1EoTgcpIGwOs-49" style="edgeStyle=orthogonalEdgeStyle;rounded=0;orthogonalLoop=1;jettySize=auto;html=1;exitX=0;exitY=1;exitDx=0;exitDy=0;entryX=0.5;entryY=0;entryDx=0;entryDy=0;endArrow=halfCircle;endFill=0;" parent="ajWUh77K1EoTgcpIGwOs-2" source="ajWUh77K1EoTgcpIGwOs-51" target="ajWUh77K1EoTgcpIGwOs-54" edge="1">
          <mxGeometry relative="1" as="geometry">
            <Array as="points">
              <mxPoint x="577" y="130" />
            </Array>
          </mxGeometry>
        </mxCell>
        <mxCell id="ajWUh77K1EoTgcpIGwOs-50" style="edgeStyle=orthogonalEdgeStyle;rounded=0;orthogonalLoop=1;jettySize=auto;html=1;exitX=0.5;exitY=0;exitDx=0;exitDy=0;entryX=0.5;entryY=1;entryDx=0;entryDy=0;endArrow=none;endFill=0;" parent="ajWUh77K1EoTgcpIGwOs-2" source="ajWUh77K1EoTgcpIGwOs-51" target="ajWUh77K1EoTgcpIGwOs-66" edge="1">
          <mxGeometry relative="1" as="geometry" />
        </mxCell>
        <mxCell id="ajWUh77K1EoTgcpIGwOs-51" value="&amp;lt;&amp;lt;component&amp;gt;&amp;gt;&lt;br style=&quot;border-color: var(--border-color);&quot;&gt;&lt;div style=&quot;border-color: var(--border-color); text-align: center;&quot;&gt;&lt;b style=&quot;border-color: var(--border-color); background-color: initial;&quot;&gt;Persistence&lt;/b&gt;&lt;/div&gt;" style="html=1;align=left;spacingLeft=4;verticalAlign=top;strokeColor=none;fillColor=none;whiteSpace=wrap;" parent="ajWUh77K1EoTgcpIGwOs-2" vertex="1">
          <mxGeometry x="560" y="80" width="155.53" height="50" as="geometry" />
        </mxCell>
        <mxCell id="ajWUh77K1EoTgcpIGwOs-52" value="" style="shape=module;jettyWidth=10;jettyHeight=4;fillColor=#57BCFF;" parent="ajWUh77K1EoTgcpIGwOs-51" vertex="1">
          <mxGeometry x="1" width="16" height="20" relative="1" as="geometry">
            <mxPoint x="-25" y="9" as="offset" />
          </mxGeometry>
        </mxCell>
        <mxCell id="ajWUh77K1EoTgcpIGwOs-53" value="" style="ellipse;whiteSpace=wrap;html=1;aspect=fixed;fillColor=#57BCFF;perimeterSpacing=0;" parent="ajWUh77K1EoTgcpIGwOs-2" vertex="1">
          <mxGeometry x="677.9978723404256" y="170.0030434782609" width="13" height="13" as="geometry" />
        </mxCell>
        <mxCell id="ajWUh77K1EoTgcpIGwOs-54" value="" style="ellipse;whiteSpace=wrap;html=1;aspect=fixed;fillColor=#57BCFF;perimeterSpacing=0;" parent="ajWUh77K1EoTgcpIGwOs-2" vertex="1">
          <mxGeometry x="570.4978723404256" y="170.0030434782609" width="13" height="13" as="geometry" />
        </mxCell>
        <mxCell id="ajWUh77K1EoTgcpIGwOs-55" value="&lt;b&gt;Data Model API&lt;/b&gt;" style="text;html=1;strokeColor=none;fillColor=none;align=center;verticalAlign=middle;whiteSpace=wrap;rounded=0;" parent="ajWUh77K1EoTgcpIGwOs-2" vertex="1">
          <mxGeometry x="530" y="190" width="92" height="30" as="geometry" />
        </mxCell>
        <mxCell id="ajWUh77K1EoTgcpIGwOs-56" value="" style="fontStyle=1;align=center;verticalAlign=top;childLayout=stackLayout;horizontal=1;horizontalStack=0;resizeParent=1;resizeParentMax=0;resizeLast=0;marginBottom=0;fontColor=none;noLabel=1;fillColor=#57BCFF;" parent="ajWUh77K1EoTgcpIGwOs-2" vertex="1">
          <mxGeometry x="267.97" y="153.5" width="155.53" height="48.5" as="geometry" />
        </mxCell>
        <mxCell id="ajWUh77K1EoTgcpIGwOs-57" style="edgeStyle=orthogonalEdgeStyle;rounded=0;orthogonalLoop=1;jettySize=auto;html=1;exitX=1;exitY=0.5;exitDx=0;exitDy=0;entryX=0;entryY=0.5;entryDx=0;entryDy=0;endArrow=none;endFill=0;" parent="ajWUh77K1EoTgcpIGwOs-2" source="ajWUh77K1EoTgcpIGwOs-58" target="ajWUh77K1EoTgcpIGwOs-54" edge="1">
          <mxGeometry relative="1" as="geometry" />
        </mxCell>
        <mxCell id="ajWUh77K1EoTgcpIGwOs-58" value="&amp;lt;&amp;lt;component&amp;gt;&amp;gt;&lt;br style=&quot;border-color: var(--border-color);&quot;&gt;&lt;div style=&quot;border-color: var(--border-color); text-align: center;&quot;&gt;&lt;b&gt;Data Model&lt;/b&gt;&lt;/div&gt;" style="html=1;align=left;spacingLeft=4;verticalAlign=top;strokeColor=none;fillColor=none;whiteSpace=wrap;" parent="ajWUh77K1EoTgcpIGwOs-2" vertex="1">
          <mxGeometry x="267.97" y="152.5" width="155.53" height="48.5" as="geometry" />
        </mxCell>
        <mxCell id="ajWUh77K1EoTgcpIGwOs-59" value="" style="shape=module;jettyWidth=10;jettyHeight=4;fillColor=#57BCFF;" parent="ajWUh77K1EoTgcpIGwOs-58" vertex="1">
          <mxGeometry x="1" width="19" height="20" relative="1" as="geometry">
            <mxPoint x="-25" y="9" as="offset" />
          </mxGeometry>
        </mxCell>
        <mxCell id="ajWUh77K1EoTgcpIGwOs-60" style="edgeStyle=orthogonalEdgeStyle;rounded=0;orthogonalLoop=1;jettySize=auto;html=1;exitX=0.5;exitY=0;exitDx=0;exitDy=0;entryX=0.802;entryY=1.036;entryDx=0;entryDy=0;entryPerimeter=0;endArrow=none;endFill=0;" parent="ajWUh77K1EoTgcpIGwOs-2" source="ajWUh77K1EoTgcpIGwOs-53" target="ajWUh77K1EoTgcpIGwOs-51" edge="1">
          <mxGeometry relative="1" as="geometry" />
        </mxCell>
        <mxCell id="ajWUh77K1EoTgcpIGwOs-61" value="&lt;b&gt;Persistence API&lt;/b&gt;" style="text;html=1;strokeColor=none;fillColor=none;align=center;verticalAlign=middle;whiteSpace=wrap;rounded=0;" parent="ajWUh77K1EoTgcpIGwOs-2" vertex="1">
          <mxGeometry x="640" y="190" width="100" height="30" as="geometry" />
        </mxCell>
        <mxCell id="ajWUh77K1EoTgcpIGwOs-62" value="&lt;b&gt;Repo API&lt;/b&gt;" style="text;html=1;strokeColor=none;fillColor=none;align=center;verticalAlign=middle;whiteSpace=wrap;rounded=0;" parent="ajWUh77K1EoTgcpIGwOs-2" vertex="1">
          <mxGeometry x="565" y="309.25" width="60" height="30" as="geometry" />
        </mxCell>
        <mxCell id="ajWUh77K1EoTgcpIGwOs-63" value="&lt;b&gt;Controller API&lt;/b&gt;" style="text;html=1;strokeColor=none;fillColor=none;align=center;verticalAlign=middle;whiteSpace=wrap;rounded=0;" parent="ajWUh77K1EoTgcpIGwOs-2" vertex="1">
          <mxGeometry x="57" y="179" width="87" height="30" as="geometry" />
        </mxCell>
        <mxCell id="ajWUh77K1EoTgcpIGwOs-64" value="&lt;b&gt;DTO API&lt;/b&gt;" style="text;html=1;strokeColor=none;fillColor=none;align=center;verticalAlign=middle;whiteSpace=wrap;rounded=0;" parent="ajWUh77K1EoTgcpIGwOs-2" vertex="1">
          <mxGeometry x="108.74000000000001" y="365.75" width="60" height="30" as="geometry" />
        </mxCell>
        <mxCell id="ajWUh77K1EoTgcpIGwOs-65" value="&lt;b&gt;APP Service API&lt;/b&gt;" style="text;html=1;strokeColor=none;fillColor=none;align=center;verticalAlign=middle;whiteSpace=wrap;rounded=0;" parent="ajWUh77K1EoTgcpIGwOs-2" vertex="1">
          <mxGeometry x="8.210000000000008" y="365.75" width="104.53" height="30" as="geometry" />
        </mxCell>
        <mxCell id="ajWUh77K1EoTgcpIGwOs-66" value="" style="whiteSpace=wrap;html=1;aspect=fixed;fillColor=#57BCFF;" parent="ajWUh77K1EoTgcpIGwOs-2" vertex="1">
          <mxGeometry x="628.0006382978723" y="-10.997741935483873" width="20" height="20" as="geometry" />
        </mxCell>
        <mxCell id="ajWUh77K1EoTgcpIGwOs-67" value="" style="ellipse;whiteSpace=wrap;html=1;aspect=fixed;fillColor=#57BCFF;" parent="1" vertex="1">
          <mxGeometry x="282" y="50" width="20" height="20" as="geometry" />
        </mxCell>
        <mxCell id="ajWUh77K1EoTgcpIGwOs-68" style="edgeStyle=orthogonalEdgeStyle;rounded=0;orthogonalLoop=1;jettySize=auto;html=1;exitX=0.5;exitY=0;exitDx=0;exitDy=0;entryX=0.5;entryY=1;entryDx=0;entryDy=0;endArrow=none;endFill=0;" parent="1" source="ajWUh77K1EoTgcpIGwOs-13" target="ajWUh77K1EoTgcpIGwOs-67" edge="1">
          <mxGeometry relative="1" as="geometry" />
        </mxCell>
        <mxCell id="ajWUh77K1EoTgcpIGwOs-69" value="&lt;b&gt;RDG API&lt;/b&gt;" style="text;html=1;strokeColor=none;fillColor=none;align=center;verticalAlign=middle;whiteSpace=wrap;rounded=0;" parent="1" vertex="1">
          <mxGeometry x="222" y="40" width="60" height="30" as="geometry" />
        </mxCell>
        <mxCell id="ajWUh77K1EoTgcpIGwOs-70" value="" style="ellipse;whiteSpace=wrap;html=1;aspect=fixed;fillColor=#57BCFF;" parent="1" vertex="1">
          <mxGeometry x="818" y="35" width="20" height="20" as="geometry" />
        </mxCell>
        <mxCell id="ajWUh77K1EoTgcpIGwOs-71" value="&lt;b&gt;Database API&lt;/b&gt;" style="text;html=1;strokeColor=none;fillColor=none;align=center;verticalAlign=middle;whiteSpace=wrap;rounded=0;" parent="1" vertex="1">
          <mxGeometry x="750" y="30" width="60" height="30" as="geometry" />
        </mxCell>
        <mxCell id="ajWUh77K1EoTgcpIGwOs-72" style="edgeStyle=orthogonalEdgeStyle;rounded=0;orthogonalLoop=1;jettySize=auto;html=1;exitX=0.5;exitY=0;exitDx=0;exitDy=0;entryX=0.5;entryY=1;entryDx=0;entryDy=0;endArrow=halfCircle;endFill=0;" parent="1" source="ajWUh77K1EoTgcpIGwOs-66" target="ajWUh77K1EoTgcpIGwOs-70" edge="1">
          <mxGeometry relative="1" as="geometry">
            <mxPoint x="827.77" y="69" as="targetPoint" />
          </mxGeometry>
        </mxCell>
        <mxCell id="ajWUh77K1EoTgcpIGwOs-73" value="" style="fontStyle=1;align=center;verticalAlign=top;childLayout=stackLayout;horizontal=1;horizontalStack=0;resizeParent=1;resizeParentMax=0;resizeLast=0;marginBottom=0;fontColor=none;noLabel=1;fillColor=#57BCFF;" parent="1" vertex="1">
          <mxGeometry x="733" y="-130" width="190" height="100" as="geometry" />
        </mxCell>
        <mxCell id="ajWUh77K1EoTgcpIGwOs-74" value="&amp;lt;&amp;lt;component&amp;gt;&amp;gt;&lt;br&gt;&lt;b&gt;mongoDB&lt;/b&gt;" style="html=1;align=center;spacingLeft=4;verticalAlign=top;strokeColor=none;fillColor=none;whiteSpace=wrap;" parent="ajWUh77K1EoTgcpIGwOs-73" vertex="1">
          <mxGeometry width="190" height="100" as="geometry" />
        </mxCell>
        <mxCell id="ajWUh77K1EoTgcpIGwOs-75" value="" style="shape=module;jettyWidth=10;jettyHeight=4;fillColor=#57BCFF;" parent="ajWUh77K1EoTgcpIGwOs-74" vertex="1">
          <mxGeometry x="1" width="16" height="20" relative="1" as="geometry">
            <mxPoint x="-25" y="9" as="offset" />
          </mxGeometry>
        </mxCell>
        <mxCell id="ajWUh77K1EoTgcpIGwOs-76" style="edgeStyle=orthogonalEdgeStyle;rounded=0;orthogonalLoop=1;jettySize=auto;html=1;entryX=0.5;entryY=0;entryDx=0;entryDy=0;endArrow=none;endFill=0;" parent="1" source="ajWUh77K1EoTgcpIGwOs-74" edge="1">
          <mxGeometry relative="1" as="geometry">
            <mxPoint x="828.23" y="35" as="targetPoint" />
          </mxGeometry>
        </mxCell>
        <mxCell id="ajWUh77K1EoTgcpIGwOs-77" style="edgeStyle=orthogonalEdgeStyle;rounded=0;orthogonalLoop=1;jettySize=auto;html=1;entryX=0.5;entryY=1;entryDx=0;entryDy=0;endArrow=none;endFill=0;startArrow=halfCircle;startFill=0;" parent="1" target="ajWUh77K1EoTgcpIGwOs-118" edge="1">
          <mxGeometry relative="1" as="geometry">
            <mxPoint x="292.1400000000001" y="51" as="sourcePoint" />
          </mxGeometry>
        </mxCell>
        <mxCell id="ajWUh77K1EoTgcpIGwOs-78" value="" style="fontStyle=1;align=center;verticalAlign=top;childLayout=stackLayout;horizontal=1;horizontalStack=0;resizeParent=1;resizeParentMax=0;resizeLast=0;marginBottom=0;fontColor=none;noLabel=1;fillColor=#57BCFF;" parent="1" vertex="1">
          <mxGeometry x="-174.52" y="-619" width="840" height="530.0022580645161" as="geometry" />
        </mxCell>
        <mxCell id="ajWUh77K1EoTgcpIGwOs-79" value="&amp;lt;&amp;lt;component&amp;gt;&amp;gt;&lt;br&gt;&lt;b&gt;Client&lt;br&gt;&lt;/b&gt;" style="html=1;align=center;spacingLeft=4;verticalAlign=top;strokeColor=none;fillColor=none;whiteSpace=wrap;" parent="ajWUh77K1EoTgcpIGwOs-78" vertex="1">
          <mxGeometry width="840" height="530.0022580645161" as="geometry" />
        </mxCell>
        <mxCell id="ajWUh77K1EoTgcpIGwOs-80" value="" style="shape=module;jettyWidth=10;jettyHeight=4;fillColor=#57BCFF;" parent="ajWUh77K1EoTgcpIGwOs-79" vertex="1">
          <mxGeometry x="1" width="16" height="20" relative="1" as="geometry">
            <mxPoint x="-25" y="9" as="offset" />
          </mxGeometry>
        </mxCell>
        <mxCell id="ajWUh77K1EoTgcpIGwOs-81" value="" style="whiteSpace=wrap;html=1;aspect=fixed;fillColor=#57BCFF;" parent="ajWUh77K1EoTgcpIGwOs-79" vertex="1">
          <mxGeometry x="-7.759361702127649" y="310.0022580645161" width="20" height="20" as="geometry" />
        </mxCell>
        <mxCell id="ajWUh77K1EoTgcpIGwOs-82" value="" style="ellipse;whiteSpace=wrap;html=1;aspect=fixed;fillColor=#57BCFF;" parent="ajWUh77K1EoTgcpIGwOs-79" vertex="1">
          <mxGeometry x="583.48" y="356.70000000000005" width="20" height="20" as="geometry" />
        </mxCell>
        <mxCell id="ajWUh77K1EoTgcpIGwOs-83" value="&lt;b&gt;APP&lt;br&gt;Service&lt;br&gt;API&lt;/b&gt;" style="text;html=1;strokeColor=none;fillColor=none;align=center;verticalAlign=middle;whiteSpace=wrap;rounded=0;" parent="ajWUh77K1EoTgcpIGwOs-79" vertex="1">
          <mxGeometry x="541.21" y="384" width="104.53" height="30" as="geometry" />
        </mxCell>
        <mxCell id="ajWUh77K1EoTgcpIGwOs-84" value="Frameworks and Drivers Layer" style="shape=folder;fontStyle=1;tabWidth=120;tabHeight=20;tabPosition=left;html=1;boundedLbl=1;whiteSpace=wrap;fillColor=#9933FF;verticalAlign=top;flipH=0;flipV=0;direction=east;" parent="ajWUh77K1EoTgcpIGwOs-79" vertex="1">
          <mxGeometry x="374.48" y="292" width="178" height="150" as="geometry" />
        </mxCell>
        <mxCell id="ajWUh77K1EoTgcpIGwOs-85" value="" style="fontStyle=1;align=center;verticalAlign=top;childLayout=stackLayout;horizontal=1;horizontalStack=0;resizeParent=1;resizeParentMax=0;resizeLast=0;marginBottom=0;fontColor=none;noLabel=1;fillColor=#57BCFF;" parent="ajWUh77K1EoTgcpIGwOs-79" vertex="1">
          <mxGeometry x="395.9839130434782" y="346.0041176470588" width="140" height="80" as="geometry" />
        </mxCell>
        <mxCell id="ajWUh77K1EoTgcpIGwOs-86" value="&amp;lt;&amp;lt;component&amp;gt;&amp;gt;&lt;br&gt;&lt;b&gt;ViewComponent&lt;/b&gt;" style="html=1;align=center;spacingLeft=4;verticalAlign=top;strokeColor=none;fillColor=none;whiteSpace=wrap;" parent="ajWUh77K1EoTgcpIGwOs-85" vertex="1">
          <mxGeometry width="140" height="80" as="geometry" />
        </mxCell>
        <mxCell id="ajWUh77K1EoTgcpIGwOs-87" value="" style="shape=module;jettyWidth=10;jettyHeight=4;fillColor=#57BCFF;" parent="ajWUh77K1EoTgcpIGwOs-86" vertex="1">
          <mxGeometry x="1" width="16" height="20" relative="1" as="geometry">
            <mxPoint x="-25" y="9" as="offset" />
          </mxGeometry>
        </mxCell>
        <mxCell id="ajWUh77K1EoTgcpIGwOs-88" style="edgeStyle=orthogonalEdgeStyle;rounded=0;orthogonalLoop=1;jettySize=auto;html=1;exitX=1;exitY=0.25;exitDx=0;exitDy=0;entryX=0;entryY=0.5;entryDx=0;entryDy=0;endArrow=halfCircle;endFill=0;" parent="ajWUh77K1EoTgcpIGwOs-79" source="ajWUh77K1EoTgcpIGwOs-86" target="ajWUh77K1EoTgcpIGwOs-82" edge="1">
          <mxGeometry relative="1" as="geometry" />
        </mxCell>
        <mxCell id="ajWUh77K1EoTgcpIGwOs-89" value="Application Business" style="shape=folder;fontStyle=1;tabWidth=120;tabHeight=20;tabPosition=left;html=1;boundedLbl=1;whiteSpace=wrap;fillColor=#FF0000;verticalAlign=top;strokeColor=#000000;gradientColor=default;" parent="ajWUh77K1EoTgcpIGwOs-79" vertex="1">
          <mxGeometry x="625.98" y="267" width="150" height="130" as="geometry" />
        </mxCell>
        <mxCell id="ajWUh77K1EoTgcpIGwOs-90" value="" style="fontStyle=1;align=center;verticalAlign=top;childLayout=stackLayout;horizontal=1;horizontalStack=0;resizeParent=1;resizeParentMax=0;resizeLast=0;marginBottom=0;fontColor=none;noLabel=1;fillColor=#57BCFF;" parent="ajWUh77K1EoTgcpIGwOs-79" vertex="1">
          <mxGeometry x="630.98" y="322" width="140" height="70" as="geometry" />
        </mxCell>
        <mxCell id="ajWUh77K1EoTgcpIGwOs-91" value="&amp;lt;&amp;lt;component&amp;gt;&amp;gt;&lt;b&gt;&lt;br&gt;Service&lt;/b&gt;" style="html=1;align=center;spacingLeft=4;verticalAlign=top;strokeColor=none;fillColor=none;whiteSpace=wrap;" parent="ajWUh77K1EoTgcpIGwOs-90" vertex="1">
          <mxGeometry width="140" height="70" as="geometry" />
        </mxCell>
        <mxCell id="ajWUh77K1EoTgcpIGwOs-92" value="" style="shape=module;jettyWidth=10;jettyHeight=4;fillColor=#57BCFF;" parent="ajWUh77K1EoTgcpIGwOs-91" vertex="1">
          <mxGeometry x="1" width="16" height="20" relative="1" as="geometry">
            <mxPoint x="-25" y="9" as="offset" />
          </mxGeometry>
        </mxCell>
        <mxCell id="ajWUh77K1EoTgcpIGwOs-93" style="edgeStyle=orthogonalEdgeStyle;rounded=0;orthogonalLoop=1;jettySize=auto;html=1;endArrow=none;endFill=0;entryX=0.002;entryY=0.648;entryDx=0;entryDy=0;entryPerimeter=0;" parent="ajWUh77K1EoTgcpIGwOs-79" source="ajWUh77K1EoTgcpIGwOs-82" target="ajWUh77K1EoTgcpIGwOs-91" edge="1">
          <mxGeometry relative="1" as="geometry">
            <mxPoint x="634.48" y="367" as="targetPoint" />
          </mxGeometry>
        </mxCell>
        <mxCell id="ajWUh77K1EoTgcpIGwOs-94" style="edgeStyle=orthogonalEdgeStyle;rounded=0;orthogonalLoop=1;jettySize=auto;html=1;entryX=0.25;entryY=0;entryDx=0;entryDy=0;endArrow=none;endFill=0;startArrow=halfCircle;startFill=0;" parent="ajWUh77K1EoTgcpIGwOs-79" source="ajWUh77K1EoTgcpIGwOs-96" target="ajWUh77K1EoTgcpIGwOs-91" edge="1">
          <mxGeometry relative="1" as="geometry" />
        </mxCell>
        <mxCell id="ajWUh77K1EoTgcpIGwOs-95" style="edgeStyle=orthogonalEdgeStyle;rounded=0;orthogonalLoop=1;jettySize=auto;html=1;entryX=0.5;entryY=0;entryDx=0;entryDy=0;endArrow=none;endFill=0;startArrow=halfCircle;startFill=0;" parent="ajWUh77K1EoTgcpIGwOs-79" source="ajWUh77K1EoTgcpIGwOs-96" target="ajWUh77K1EoTgcpIGwOs-102" edge="1">
          <mxGeometry relative="1" as="geometry" />
        </mxCell>
        <mxCell id="ajWUh77K1EoTgcpIGwOs-96" value="" style="ellipse;whiteSpace=wrap;html=1;aspect=fixed;fillColor=#57BCFF;" parent="ajWUh77K1EoTgcpIGwOs-79" vertex="1">
          <mxGeometry x="431.0899999999999" y="240" width="20" height="20" as="geometry" />
        </mxCell>
        <mxCell id="ajWUh77K1EoTgcpIGwOs-97" style="edgeStyle=orthogonalEdgeStyle;rounded=0;orthogonalLoop=1;jettySize=auto;html=1;endArrow=none;endFill=0;entryX=0.5;entryY=0;entryDx=0;entryDy=0;" parent="ajWUh77K1EoTgcpIGwOs-79" source="ajWUh77K1EoTgcpIGwOs-113" target="ajWUh77K1EoTgcpIGwOs-96" edge="1">
          <mxGeometry relative="1" as="geometry">
            <mxPoint x="583.3290682680968" y="260" as="targetPoint" />
          </mxGeometry>
        </mxCell>
        <mxCell id="ajWUh77K1EoTgcpIGwOs-98" style="edgeStyle=orthogonalEdgeStyle;rounded=0;orthogonalLoop=1;jettySize=auto;html=1;entryX=0;entryY=0.25;entryDx=0;entryDy=0;endArrow=none;endFill=0;" parent="ajWUh77K1EoTgcpIGwOs-79" source="ajWUh77K1EoTgcpIGwOs-99" target="ajWUh77K1EoTgcpIGwOs-86" edge="1">
          <mxGeometry relative="1" as="geometry" />
        </mxCell>
        <mxCell id="ajWUh77K1EoTgcpIGwOs-99" value="" style="ellipse;whiteSpace=wrap;html=1;aspect=fixed;fillColor=#57BCFF;" parent="ajWUh77K1EoTgcpIGwOs-79" vertex="1">
          <mxGeometry x="292.24" y="356" width="20" height="20" as="geometry" />
        </mxCell>
        <mxCell id="ajWUh77K1EoTgcpIGwOs-100" value="" style="ellipse;whiteSpace=wrap;html=1;aspect=fixed;fillColor=#57BCFF;" parent="ajWUh77K1EoTgcpIGwOs-79" vertex="1">
          <mxGeometry x="292.24" y="400.70000000000005" width="20" height="20" as="geometry" />
        </mxCell>
        <mxCell id="ajWUh77K1EoTgcpIGwOs-101" value="" style="fontStyle=1;align=center;verticalAlign=top;childLayout=stackLayout;horizontal=1;horizontalStack=0;resizeParent=1;resizeParentMax=0;resizeLast=0;marginBottom=0;fontColor=none;noLabel=1;fillColor=#0000FF;" parent="ajWUh77K1EoTgcpIGwOs-79" vertex="1">
          <mxGeometry x="82.24406826809684" y="346.00414136125653" width="147.71" height="80" as="geometry" />
        </mxCell>
        <mxCell id="ajWUh77K1EoTgcpIGwOs-102" value="&amp;lt;&amp;lt;component&amp;gt;&amp;gt;&lt;br&gt;&lt;b&gt;HTML+JS+CSS&lt;br&gt;&lt;/b&gt;" style="html=1;align=center;spacingLeft=4;verticalAlign=top;strokeColor=none;fillColor=none;whiteSpace=wrap;" parent="ajWUh77K1EoTgcpIGwOs-101" vertex="1">
          <mxGeometry width="147.71" height="80" as="geometry" />
        </mxCell>
        <mxCell id="ajWUh77K1EoTgcpIGwOs-103" value="" style="shape=module;jettyWidth=10;jettyHeight=4;fillColor=#57BCFF;" parent="ajWUh77K1EoTgcpIGwOs-102" vertex="1">
          <mxGeometry x="1" width="16" height="20" relative="1" as="geometry">
            <mxPoint x="-25" y="9" as="offset" />
          </mxGeometry>
        </mxCell>
        <mxCell id="ajWUh77K1EoTgcpIGwOs-104" style="edgeStyle=orthogonalEdgeStyle;rounded=0;orthogonalLoop=1;jettySize=auto;html=1;entryX=0.999;entryY=0.809;entryDx=0;entryDy=0;entryPerimeter=0;endArrow=none;endFill=0;" parent="ajWUh77K1EoTgcpIGwOs-79" source="ajWUh77K1EoTgcpIGwOs-100" target="ajWUh77K1EoTgcpIGwOs-102" edge="1">
          <mxGeometry relative="1" as="geometry" />
        </mxCell>
        <mxCell id="ajWUh77K1EoTgcpIGwOs-105" style="edgeStyle=orthogonalEdgeStyle;rounded=0;orthogonalLoop=1;jettySize=auto;html=1;entryX=1;entryY=0.25;entryDx=0;entryDy=0;endArrow=none;endFill=0;startArrow=halfCircle;startFill=0;" parent="ajWUh77K1EoTgcpIGwOs-79" source="ajWUh77K1EoTgcpIGwOs-99" target="ajWUh77K1EoTgcpIGwOs-102" edge="1">
          <mxGeometry relative="1" as="geometry" />
        </mxCell>
        <mxCell id="ajWUh77K1EoTgcpIGwOs-106" style="edgeStyle=orthogonalEdgeStyle;rounded=0;orthogonalLoop=1;jettySize=auto;html=1;entryX=0.007;entryY=0.81;entryDx=0;entryDy=0;entryPerimeter=0;endArrow=none;endFill=0;startArrow=halfCircle;startFill=0;" parent="ajWUh77K1EoTgcpIGwOs-79" source="ajWUh77K1EoTgcpIGwOs-100" target="ajWUh77K1EoTgcpIGwOs-86" edge="1">
          <mxGeometry relative="1" as="geometry" />
        </mxCell>
        <mxCell id="ajWUh77K1EoTgcpIGwOs-107" value="&lt;b&gt;CTRL&lt;br&gt;API&lt;/b&gt;" style="text;html=1;strokeColor=none;fillColor=none;align=center;verticalAlign=middle;whiteSpace=wrap;rounded=0;" parent="ajWUh77K1EoTgcpIGwOs-79" vertex="1">
          <mxGeometry x="249.98000000000002" y="322" width="104.53" height="30" as="geometry" />
        </mxCell>
        <mxCell id="ajWUh77K1EoTgcpIGwOs-108" value="&lt;b&gt;OBSERVER&lt;br&gt;API&lt;/b&gt;" style="text;html=1;strokeColor=none;fillColor=none;align=center;verticalAlign=middle;whiteSpace=wrap;rounded=0;" parent="ajWUh77K1EoTgcpIGwOs-79" vertex="1">
          <mxGeometry x="249.98000000000002" y="426" width="104.53" height="30" as="geometry" />
        </mxCell>
        <mxCell id="ajWUh77K1EoTgcpIGwOs-109" style="edgeStyle=orthogonalEdgeStyle;rounded=0;orthogonalLoop=1;jettySize=auto;html=1;entryX=1;entryY=0.5;entryDx=0;entryDy=0;endArrow=none;endFill=0;" parent="ajWUh77K1EoTgcpIGwOs-79" source="ajWUh77K1EoTgcpIGwOs-102" target="ajWUh77K1EoTgcpIGwOs-81" edge="1">
          <mxGeometry relative="1" as="geometry" />
        </mxCell>
        <mxCell id="ajWUh77K1EoTgcpIGwOs-110" value="" style="whiteSpace=wrap;html=1;aspect=fixed;fillColor=#57BCFF;" parent="ajWUh77K1EoTgcpIGwOs-79" vertex="1">
          <mxGeometry x="108.24063829787235" y="-9.997741935483873" width="20" height="20" as="geometry" />
        </mxCell>
        <mxCell id="ajWUh77K1EoTgcpIGwOs-111" value="Interface Adapters&lt;span style=&quot;white-space: pre;&quot;&gt;&#x9;&lt;/span&gt; Layer" style="shape=folder;fontStyle=1;tabWidth=120;tabHeight=20;tabPosition=left;html=1;boundedLbl=1;whiteSpace=wrap;fillColor=#00CC00;verticalAlign=top;" parent="ajWUh77K1EoTgcpIGwOs-79" vertex="1">
          <mxGeometry x="352.24" y="50" width="180" height="140" as="geometry" />
        </mxCell>
        <mxCell id="ajWUh77K1EoTgcpIGwOs-112" value="" style="fontStyle=1;align=center;verticalAlign=top;childLayout=stackLayout;horizontal=1;horizontalStack=0;resizeParent=1;resizeParentMax=0;resizeLast=0;marginBottom=0;fontColor=none;noLabel=1;fillColor=#57BCFF;" parent="ajWUh77K1EoTgcpIGwOs-79" vertex="1">
          <mxGeometry x="367.23406826809673" y="100.00414136125664" width="147.71" height="80" as="geometry" />
        </mxCell>
        <mxCell id="ajWUh77K1EoTgcpIGwOs-113" value="&amp;lt;&amp;lt;component&amp;gt;&amp;gt;&lt;br&gt;&lt;b&gt;DTO&lt;br&gt;&lt;/b&gt;" style="html=1;align=center;spacingLeft=4;verticalAlign=top;strokeColor=none;fillColor=none;whiteSpace=wrap;" parent="ajWUh77K1EoTgcpIGwOs-112" vertex="1">
          <mxGeometry width="147.71" height="80" as="geometry" />
        </mxCell>
        <mxCell id="ajWUh77K1EoTgcpIGwOs-114" value="" style="shape=module;jettyWidth=10;jettyHeight=4;fillColor=#57BCFF;" parent="ajWUh77K1EoTgcpIGwOs-113" vertex="1">
          <mxGeometry x="1" width="16" height="20" relative="1" as="geometry">
            <mxPoint x="-25" y="9" as="offset" />
          </mxGeometry>
        </mxCell>
        <mxCell id="ajWUh77K1EoTgcpIGwOs-115" value="&lt;b&gt;DTO&lt;br&gt;API&lt;/b&gt;" style="text;html=1;strokeColor=none;fillColor=none;align=center;verticalAlign=middle;whiteSpace=wrap;rounded=0;" parent="ajWUh77K1EoTgcpIGwOs-79" vertex="1">
          <mxGeometry x="425.9200000000001" y="192" width="104.53" height="30" as="geometry" />
        </mxCell>
        <mxCell id="ajWUh77K1EoTgcpIGwOs-116" style="edgeStyle=orthogonalEdgeStyle;rounded=0;orthogonalLoop=1;jettySize=auto;html=1;entryX=0.316;entryY=0.018;entryDx=0;entryDy=0;entryPerimeter=0;endArrow=none;endFill=0;startArrow=halfCircle;startFill=0;" parent="ajWUh77K1EoTgcpIGwOs-79" source="ajWUh77K1EoTgcpIGwOs-96" target="ajWUh77K1EoTgcpIGwOs-86" edge="1">
          <mxGeometry relative="1" as="geometry" />
        </mxCell>
        <mxCell id="ajWUh77K1EoTgcpIGwOs-117" style="edgeStyle=orthogonalEdgeStyle;rounded=0;orthogonalLoop=1;jettySize=auto;html=1;exitX=0.25;exitY=0;exitDx=0;exitDy=0;entryX=0.5;entryY=1;entryDx=0;entryDy=0;endArrow=none;endFill=0;" parent="ajWUh77K1EoTgcpIGwOs-79" source="ajWUh77K1EoTgcpIGwOs-102" target="ajWUh77K1EoTgcpIGwOs-110" edge="1">
          <mxGeometry relative="1" as="geometry" />
        </mxCell>
        <mxCell id="ajWUh77K1EoTgcpIGwOs-118" value="" style="whiteSpace=wrap;html=1;aspect=fixed;fillColor=#57BCFF;" parent="1" vertex="1">
          <mxGeometry x="282.14063829787233" y="-98.99774193548387" width="20" height="20" as="geometry" />
        </mxCell>
        <mxCell id="ajWUh77K1EoTgcpIGwOs-119" style="edgeStyle=orthogonalEdgeStyle;rounded=0;orthogonalLoop=1;jettySize=auto;html=1;entryX=0.5;entryY=0;entryDx=0;entryDy=0;endArrow=none;endFill=0;" parent="1" source="ajWUh77K1EoTgcpIGwOs-91" target="ajWUh77K1EoTgcpIGwOs-118" edge="1">
          <mxGeometry relative="1" as="geometry">
            <Array as="points">
              <mxPoint x="526.1400000000002" y="-149" />
              <mxPoint x="292.1400000000001" y="-149" />
            </Array>
          </mxGeometry>
        </mxCell>
        <mxCell id="ajWUh77K1EoTgcpIGwOs-121" value="" style="ellipse;whiteSpace=wrap;html=1;aspect=fixed;fillColor=#57BCFF;" parent="1" vertex="1">
          <mxGeometry x="-269.4200000000001" y="-310" width="20" height="20" as="geometry" />
        </mxCell>
        <mxCell id="ajWUh77K1EoTgcpIGwOs-122" style="edgeStyle=orthogonalEdgeStyle;rounded=0;orthogonalLoop=1;jettySize=auto;html=1;exitX=0;exitY=0.5;exitDx=0;exitDy=0;entryX=1;entryY=0.5;entryDx=0;entryDy=0;endArrow=none;endFill=0;" parent="1" target="ajWUh77K1EoTgcpIGwOs-121" edge="1">
          <mxGeometry relative="1" as="geometry">
            <mxPoint x="-182.41936170212784" y="-299.9977419354839" as="sourcePoint" />
          </mxGeometry>
        </mxCell>
        <mxCell id="ajWUh77K1EoTgcpIGwOs-123" value="&lt;b&gt;UI&lt;br&gt;&lt;/b&gt;" style="text;html=1;strokeColor=none;fillColor=none;align=center;verticalAlign=middle;whiteSpace=wrap;rounded=0;" parent="1" vertex="1">
          <mxGeometry x="-290" y="-350" width="60" height="30" as="geometry" />
        </mxCell>
        <mxCell id="ajWUh77K1EoTgcpIGwOs-131" value="" style="ellipse;whiteSpace=wrap;html=1;aspect=fixed;fillColor=#57BCFF;" parent="1" vertex="1">
          <mxGeometry x="-66.00999999999996" y="-760" width="20" height="20" as="geometry" />
        </mxCell>
        <mxCell id="ajWUh77K1EoTgcpIGwOs-132" style="edgeStyle=orthogonalEdgeStyle;rounded=0;orthogonalLoop=1;jettySize=auto;html=1;entryX=0.5;entryY=0;entryDx=0;entryDy=0;endArrow=halfCircle;endFill=0;exitX=0.5;exitY=1;exitDx=0;exitDy=0;exitPerimeter=0;jumpStyle=gap;" parent="1" source="tlHfcLn6whFFO7zJR12V-47" target="ajWUh77K1EoTgcpIGwOs-131" edge="1">
          <mxGeometry relative="1" as="geometry">
            <mxPoint x="-57" y="-890" as="sourcePoint" />
            <Array as="points">
              <mxPoint x="-56" y="-926" />
            </Array>
          </mxGeometry>
        </mxCell>
        <mxCell id="ajWUh77K1EoTgcpIGwOs-133" value="&lt;b&gt;Azure API&lt;/b&gt;" style="text;html=1;strokeColor=none;fillColor=none;align=center;verticalAlign=middle;whiteSpace=wrap;rounded=0;" parent="1" vertex="1">
          <mxGeometry x="-130.53999999999985" y="-765" width="60" height="30" as="geometry" />
        </mxCell>
        <mxCell id="ajWUh77K1EoTgcpIGwOs-134" style="edgeStyle=orthogonalEdgeStyle;rounded=0;orthogonalLoop=1;jettySize=auto;html=1;entryX=0.5;entryY=1;entryDx=0;entryDy=0;endArrow=none;endFill=0;" parent="1" target="ajWUh77K1EoTgcpIGwOs-131" edge="1">
          <mxGeometry relative="1" as="geometry">
            <mxPoint x="-56.40000000000009" y="-629.9977419354839" as="sourcePoint" />
          </mxGeometry>
        </mxCell>
        <mxCell id="tlHfcLn6whFFO7zJR12V-51" value="" style="edgeStyle=orthogonalEdgeStyle;rounded=0;orthogonalLoop=1;jettySize=auto;html=1;entryX=0.5;entryY=0;entryDx=0;entryDy=0;endArrow=halfCircle;endFill=0;" edge="1" parent="1" target="tlHfcLn6whFFO7zJR12V-1">
          <mxGeometry relative="1" as="geometry">
            <mxPoint x="-57" y="-890" as="sourcePoint" />
            <mxPoint x="-57" y="-760" as="targetPoint" />
            <Array as="points">
              <mxPoint x="-57" y="-960" />
            </Array>
          </mxGeometry>
        </mxCell>
        <mxCell id="tlHfcLn6whFFO7zJR12V-1" value="" style="fontStyle=1;align=center;verticalAlign=top;childLayout=stackLayout;horizontal=1;horizontalStack=0;resizeParent=1;resizeParentMax=0;resizeLast=0;marginBottom=0;fontColor=none;noLabel=1;fillColor=#57BCFF;" vertex="1" parent="1">
          <mxGeometry x="-326.00000000000006" y="-1250" width="553.5" height="360" as="geometry" />
        </mxCell>
        <mxCell id="tlHfcLn6whFFO7zJR12V-2" value="&amp;lt;&amp;lt;component&amp;gt;&amp;gt;&lt;br&gt;&lt;b&gt;Azure Fluid Relay&lt;br&gt;&lt;/b&gt;" style="html=1;align=center;spacingLeft=4;verticalAlign=top;strokeColor=none;fillColor=none;whiteSpace=wrap;" vertex="1" parent="tlHfcLn6whFFO7zJR12V-1">
          <mxGeometry width="553.5" height="360" as="geometry" />
        </mxCell>
        <mxCell id="tlHfcLn6whFFO7zJR12V-3" value="" style="shape=module;jettyWidth=10;jettyHeight=4;fillColor=#57BCFF;" vertex="1" parent="tlHfcLn6whFFO7zJR12V-2">
          <mxGeometry x="1" width="16" height="20" relative="1" as="geometry">
            <mxPoint x="-25" y="9" as="offset" />
          </mxGeometry>
        </mxCell>
        <mxCell id="tlHfcLn6whFFO7zJR12V-4" value="" style="whiteSpace=wrap;html=1;aspect=fixed;fillColor=#57BCFF;" vertex="1" parent="tlHfcLn6whFFO7zJR12V-2">
          <mxGeometry x="-7.759361702127649" y="210.5666743963964" width="13.584847782145786" height="13.584847782145786" as="geometry" />
        </mxCell>
        <mxCell id="tlHfcLn6whFFO7zJR12V-18" style="edgeStyle=orthogonalEdgeStyle;rounded=0;orthogonalLoop=1;jettySize=auto;html=1;entryX=0.5;entryY=0;entryDx=0;entryDy=0;endArrow=none;endFill=0;startArrow=halfCircle;startFill=0;" edge="1" parent="tlHfcLn6whFFO7zJR12V-2">
          <mxGeometry relative="1" as="geometry">
            <mxPoint x="270.15000000000003" y="187.81" as="sourcePoint" />
            <mxPoint x="269.9990682680968" y="246.9006796192362" as="targetPoint" />
          </mxGeometry>
        </mxCell>
        <mxCell id="tlHfcLn6whFFO7zJR12V-19" value="" style="ellipse;whiteSpace=wrap;html=1;aspect=fixed;fillColor=#57BCFF;" vertex="1" parent="tlHfcLn6whFFO7zJR12V-2">
          <mxGeometry x="262.9999999999999" y="174.20817338574943" width="13.584847782145786" height="13.584847782145786" as="geometry" />
        </mxCell>
        <mxCell id="tlHfcLn6whFFO7zJR12V-33" value="" style="whiteSpace=wrap;html=1;aspect=fixed;fillColor=#57BCFF;" vertex="1" parent="tlHfcLn6whFFO7zJR12V-2">
          <mxGeometry x="108.24063829787235" y="-6.790890117936201" width="13.584847782145786" height="13.584847782145786" as="geometry" />
        </mxCell>
        <mxCell id="tlHfcLn6whFFO7zJR12V-34" value="Storage" style="shape=folder;fontStyle=1;tabWidth=120;tabHeight=20;tabPosition=left;html=1;boundedLbl=1;whiteSpace=wrap;fillColor=#EA6B66;verticalAlign=top;" vertex="1" parent="tlHfcLn6whFFO7zJR12V-2">
          <mxGeometry x="171.75" y="52.00181038181823" width="180" height="95.0939344750205" as="geometry" />
        </mxCell>
        <mxCell id="tlHfcLn6whFFO7zJR12V-38" value="&lt;b&gt;AzureConnectionConfig&lt;/b&gt;" style="text;html=1;strokeColor=none;fillColor=none;align=center;verticalAlign=middle;whiteSpace=wrap;rounded=0;" vertex="1" parent="tlHfcLn6whFFO7zJR12V-2">
          <mxGeometry x="135.00000000000009" y="174.20453870859953" width="104.53" height="20.37727167321868" as="geometry" />
        </mxCell>
        <mxCell id="tlHfcLn6whFFO7zJR12V-47" value="Service" style="shape=folder;fontStyle=1;tabWidth=120;tabHeight=20;tabPosition=left;html=1;boundedLbl=1;whiteSpace=wrap;fillColor=#004C99;verticalAlign=top;flipH=0;flipV=0;direction=east;" vertex="1" parent="tlHfcLn6whFFO7zJR12V-2">
          <mxGeometry x="177.75" y="224.15" width="178" height="100" as="geometry" />
        </mxCell>
        <mxCell id="tlHfcLn6whFFO7zJR12V-64" style="edgeStyle=orthogonalEdgeStyle;rounded=0;orthogonalLoop=1;jettySize=auto;html=1;endArrow=none;endFill=0;" edge="1" parent="tlHfcLn6whFFO7zJR12V-2">
          <mxGeometry relative="1" as="geometry">
            <mxPoint x="270.00000000000006" y="173" as="sourcePoint" />
            <mxPoint x="271.00000000000006" y="146.09574485683856" as="targetPoint" />
            <Array as="points">
              <mxPoint x="270" y="148" />
              <mxPoint x="271" y="148" />
            </Array>
          </mxGeometry>
        </mxCell>
        <mxCell id="tlHfcLn6whFFO7zJR12V-67" style="edgeStyle=orthogonalEdgeStyle;rounded=0;orthogonalLoop=1;jettySize=auto;html=1;entryX=0.5;entryY=1;entryDx=0;entryDy=0;endArrow=none;endFill=0;entryPerimeter=0;" edge="1" parent="tlHfcLn6whFFO7zJR12V-2">
          <mxGeometry relative="1" as="geometry">
            <mxPoint x="270.00000000000006" y="380" as="sourcePoint" />
            <mxPoint x="269.75000000000006" y="324.1500000000001" as="targetPoint" />
            <Array as="points">
              <mxPoint x="270" y="380" />
            </Array>
          </mxGeometry>
        </mxCell>
      </root>
    </mxGraphModel>
  </diagram>
</mxfile>
